<mxfile host="app.diagrams.net" modified="2020-05-04T09:45:22.635Z" agent="5.0 (Windows)" etag="sIKQa68RniYA4K_DBAac" version="13.0.6" type="github">
  <diagram id="xxIS8hDRbP5vDM_v2ATv" name="Page-1">
    <mxGraphModel dx="1422" dy="791" grid="1" gridSize="10" guides="1" tooltips="1" connect="1" arrows="1" fold="1" page="1" pageScale="1" pageWidth="850" pageHeight="1100" math="0" shadow="0">
      <root>
        <mxCell id="0" />
        <mxCell id="1" parent="0" />
      </root>
    </mxGraphModel>
  </diagram>
</mxfile>
